<?xml version="1.0" encoding="UTF-8" standalone="no"?>
<!DOCTYPE svg PUBLIC "-//W3C//DTD SVG 1.1//EN"
 "http://www.w3.org/Graphics/SVG/1.1/DTD/svg11.dtd">
<!-- Generated by graphviz version 2.40.1 (20161225.0304)
 -->
<!-- Title: graphname Pages: 1 -->
<svg width="2011pt" height="723pt"
 viewBox="0.00 0.00 2010.97 722.62" xmlns="http://www.w3.org/2000/svg" xmlns:xlink="http://www.w3.org/1999/xlink">
<g id="graph0" class="graph" transform="scale(1 1) rotate(0) translate(4 718.6195)">
<title>graphname</title>
<polygon fill="#ffffff" stroke="transparent" points="-4,4 -4,-718.6195 2006.9697,-718.6195 2006.9697,4 -4,4"/>
<!-- CZE20 -->
<g id="node1" class="node">
<title>CZE20</title>
<polygon fill="none" stroke="#000000" points="1364.7354,-210.5866 1206.9113,-210.5866 1206.9113,-145.7467 1364.7354,-145.7467 1364.7354,-210.5866"/>
<text text-anchor="middle" x="1285.8234" y="-195.9541" font-family="Times,serif" font-size="11.86" fill="#000000">Czech Republic, Manufacture</text>
<text text-anchor="middle" x="1285.8234" y="-181.7241" font-family="Times,serif" font-size="11.86" fill="#000000">of motor vehicles, trailers</text>
<text text-anchor="middle" x="1285.8234" y="-167.4941" font-family="Times,serif" font-size="11.86" fill="#000000">and semi&#45;trailers, 47.4 bn</text>
<text text-anchor="middle" x="1285.8234" y="-153.2642" font-family="Times,serif" font-size="11.86" fill="#000000">USD</text>
</g>
<!-- DEU20 -->
<g id="node2" class="node">
<title>DEU20</title>
<polygon fill="#98f5ff" stroke="#000000" points="1718.7433,-281.4511 1497.049,-281.4511 1497.049,-216.8822 1718.7433,-216.8822 1718.7433,-281.4511"/>
<text text-anchor="middle" x="1607.8962" y="-263.3626" font-family="Times,serif" font-size="15.77" fill="#000000">Germany, Manufacture of motor</text>
<text text-anchor="middle" x="1607.8962" y="-244.4346" font-family="Times,serif" font-size="15.77" fill="#000000">vehicles, trailers and</text>
<text text-anchor="middle" x="1607.8962" y="-225.5066" font-family="Times,serif" font-size="15.77" fill="#000000">semi&#45;trailers, 445.5 bn USD</text>
</g>
<!-- CZE20&#45;&gt;DEU20 -->
<g id="edge1" class="edge">
<title>CZE20&#45;&gt;DEU20</title>
<path fill="none" stroke="#c0c0c0" stroke-width="3.1392" stroke-dasharray="5,2" d="M1364.9389,-170.0542C1400.3349,-168.6094 1442.2692,-169.9471 1478.9726,-179.3666 1504.6493,-185.9563 1530.7726,-198.7371 1552.7291,-211.5809"/>
<polygon fill="#c0c0c0" stroke="#c0c0c0" stroke-width="3.1392" points="1551.1795,-214.7328 1561.555,-216.8772 1554.7813,-208.7306 1551.1795,-214.7328"/>
<text text-anchor="middle" x="1442.2247" y="-183.3666" font-family="Times,serif" font-size="14.00" fill="#000000">5.9 bn USD</text>
</g>
<!-- DEU20&#45;&gt;CZE20 -->
<g id="edge16" class="edge">
<title>DEU20&#45;&gt;CZE20</title>
<path fill="none" stroke="#c0c0c0" stroke-width="1.9446" stroke-dasharray="5,2" d="M1496.8114,-223.3638C1490.7795,-222.0021 1484.8033,-220.6623 1478.9726,-219.3666 1444.9997,-211.8175 1407.6032,-203.778 1374.8385,-196.8237"/>
<polygon fill="#c0c0c0" stroke="#c0c0c0" stroke-width="1.9446" points="1375.3361,-193.3515 1364.8277,-194.702 1373.8848,-200.1994 1375.3361,-193.3515"/>
<text text-anchor="middle" x="1442.2247" y="-223.3666" font-family="Times,serif" font-size="14.00" fill="#000000">3.2 bn USD</text>
</g>
<!-- HUN20 -->
<g id="node3" class="node">
<title>HUN20</title>
<polygon fill="none" stroke="#000000" points="1994.2973,-310.7797 1836.9879,-310.7797 1836.9879,-263.5535 1994.2973,-263.5535 1994.2973,-310.7797"/>
<text text-anchor="middle" x="1915.6426" y="-297.0695" font-family="Times,serif" font-size="11.00" fill="#000000">Hungary, Manufacture of motor</text>
<text text-anchor="middle" x="1915.6426" y="-283.8657" font-family="Times,serif" font-size="11.00" fill="#000000">vehicles, trailers and</text>
<text text-anchor="middle" x="1915.6426" y="-270.6618" font-family="Times,serif" font-size="11.00" fill="#000000">semi&#45;trailers, 29.1 bn USD</text>
</g>
<!-- DEU20&#45;&gt;HUN20 -->
<g id="edge19" class="edge">
<title>DEU20&#45;&gt;HUN20</title>
<path fill="none" stroke="#c0c0c0" stroke-width="1.9243" stroke-dasharray="5,2" d="M1718.9351,-237.9321C1748.824,-237.2401 1780.9909,-238.6361 1810.3155,-244.3666 1826.6785,-247.5642 1843.7104,-253.3114 1859.1883,-259.5775"/>
<polygon fill="#c0c0c0" stroke="#c0c0c0" stroke-width="1.9243" points="1858.0295,-262.8868 1868.6049,-263.5279 1860.7375,-256.4318 1858.0295,-262.8868"/>
<text text-anchor="middle" x="1773.5676" y="-248.3666" font-family="Times,serif" font-size="14.00" fill="#000000">3.1 bn USD</text>
</g>
<!-- POL20 -->
<g id="node4" class="node">
<title>POL20</title>
<polygon fill="none" stroke="#000000" points="1993.0803,-158.8293 1838.2049,-158.8293 1838.2049,-109.504 1993.0803,-109.504 1993.0803,-158.8293"/>
<text text-anchor="middle" x="1915.6426" y="-144.4572" font-family="Times,serif" font-size="11.43" fill="#000000">Poland, Manufacture of motor</text>
<text text-anchor="middle" x="1915.6426" y="-130.7364" font-family="Times,serif" font-size="11.43" fill="#000000">vehicles, trailers and</text>
<text text-anchor="middle" x="1915.6426" y="-117.0156" font-family="Times,serif" font-size="11.43" fill="#000000">semi&#45;trailers, 37.2 bn USD</text>
</g>
<!-- DEU20&#45;&gt;POL20 -->
<g id="edge20" class="edge">
<title>DEU20&#45;&gt;POL20</title>
<path fill="none" stroke="#c0c0c0" stroke-width="1.909" stroke-dasharray="5,2" d="M1647.573,-216.8098C1671.9192,-198.6106 1704.5315,-177.0595 1736.8197,-164.3666 1753.6938,-157.7332 1791.5789,-150.9559 1828.1543,-145.5068"/>
<polygon fill="#c0c0c0" stroke="#c0c0c0" stroke-width="1.909" points="1829.0288,-148.9162 1838.4172,-144.0063 1828.016,-141.9899 1829.0288,-148.9162"/>
<text text-anchor="middle" x="1773.5676" y="-168.3666" font-family="Times,serif" font-size="14.00" fill="#000000">3.1 bn USD</text>
</g>
<!-- DEU28 -->
<g id="node7" class="node">
<title>DEU28</title>
<polygon fill="#98f5ff" stroke="#000000" points="2002.7972,-401.8885 1828.4881,-401.8885 1828.4881,-332.4448 2002.7972,-332.4448 2002.7972,-401.8885"/>
<text text-anchor="middle" x="1915.6426" y="-386.2983" font-family="Times,serif" font-size="12.75" fill="#000000">Germany, Wholesale and retail</text>
<text text-anchor="middle" x="1915.6426" y="-370.993" font-family="Times,serif" font-size="12.75" fill="#000000">trade and repair of motor</text>
<text text-anchor="middle" x="1915.6426" y="-355.6876" font-family="Times,serif" font-size="12.75" fill="#000000">vehicles and motorcycles,</text>
<text text-anchor="middle" x="1915.6426" y="-340.3822" font-family="Times,serif" font-size="12.75" fill="#000000">79.2 bn USD</text>
</g>
<!-- DEU20&#45;&gt;DEU28 -->
<g id="edge23" class="edge">
<title>DEU20&#45;&gt;DEU28</title>
<path fill="none" stroke="#c0c0c0" stroke-width="1.599" d="M1640.9823,-281.4826C1665.3982,-303.2824 1700.5559,-330.6305 1736.8197,-345.1666 1762.1786,-355.3315 1791.0491,-361.1212 1818.0833,-364.3379"/>
<polygon fill="#c0c0c0" stroke="#c0c0c0" stroke-width="1.599" points="1818.0248,-367.8519 1828.3434,-365.4485 1818.7782,-360.8926 1818.0248,-367.8519"/>
<text text-anchor="middle" x="1773.5676" y="-366.3666" font-family="Times,serif" font-size="14.00" fill="#000000">2.4 bn USD</text>
</g>
<!-- HUN20&#45;&gt;DEU20 -->
<g id="edge2" class="edge">
<title>HUN20&#45;&gt;DEU20</title>
<path fill="none" stroke="#c0c0c0" stroke-width="2.8111" stroke-dasharray="5,2" d="M1836.8565,-277.4921C1805.698,-273.6612 1769.5707,-269.2135 1736.8197,-265.1666 1734.2735,-264.852 1731.6991,-264.5338 1729.1039,-264.2128"/>
<polygon fill="#c0c0c0" stroke="#c0c0c0" stroke-width="2.8111" points="1729.3613,-260.7181 1719.0072,-262.9636 1728.5017,-267.6651 1729.3613,-260.7181"/>
<text text-anchor="middle" x="1773.5676" y="-277.3666" font-family="Times,serif" font-size="14.00" fill="#000000">5.2 bn USD</text>
</g>
<!-- POL20&#45;&gt;CZE20 -->
<g id="edge17" class="edge">
<title>POL20&#45;&gt;CZE20</title>
<path fill="none" stroke="#c0c0c0" stroke-width="1.0182" stroke-dasharray="5,2" d="M1838.205,-137.7248C1738.164,-142.5849 1558.6602,-152.1985 1405.4768,-165.1666 1395.6389,-165.9995 1385.3565,-166.9677 1375.1287,-167.9931"/>
<polygon fill="#c0c0c0" stroke="#c0c0c0" stroke-width="1.0182" points="1374.53,-164.5359 1364.9376,-169.0345 1375.2417,-171.4997 1374.53,-164.5359"/>
<text text-anchor="middle" x="1607.8962" y="-161.3666" font-family="Times,serif" font-size="14.00" fill="#000000">1.1 bn USD</text>
</g>
<!-- POL20&#45;&gt;DEU20 -->
<g id="edge3" class="edge">
<title>POL20&#45;&gt;DEU20</title>
<path fill="none" stroke="#c0c0c0" stroke-width="2.4128" stroke-dasharray="5,2" d="M1868.5828,-158.7543C1850.6082,-167.6657 1829.76,-177.4322 1810.3155,-185.1666 1784.1991,-195.5549 1755.6802,-205.4333 1728.5077,-214.1837"/>
<polygon fill="#c0c0c0" stroke="#c0c0c0" stroke-width="2.4128" points="1727.4214,-210.8563 1718.9587,-217.2307 1729.5494,-217.525 1727.4214,-210.8563"/>
<text text-anchor="middle" x="1773.5676" y="-214.3666" font-family="Times,serif" font-size="14.00" fill="#000000">4.3 bn USD</text>
</g>
<!-- DEU15 -->
<g id="node5" class="node">
<title>DEU15</title>
<polygon fill="#98f5ff" stroke="#000000" points="767.1348,-339.4789 577.4332,-339.4789 577.4332,-298.8544 767.1348,-298.8544 767.1348,-339.4789"/>
<text text-anchor="middle" x="672.284" y="-323.2681" font-family="Times,serif" font-size="13.67" fill="#000000">Germany, Manufacture of basic</text>
<text text-anchor="middle" x="672.284" y="-306.8622" font-family="Times,serif" font-size="13.67" fill="#000000">metals, 133.8 bn USD</text>
</g>
<!-- DEU15&#45;&gt;DEU20 -->
<g id="edge4" class="edge">
<title>DEU15&#45;&gt;DEU20</title>
<path fill="none" stroke="#c0c0c0" stroke-width="5.0866" d="M767.1747,-305.6357C774.5703,-304.7427 781.9285,-303.9062 789.0517,-303.1666 1036.0451,-277.5208 1326.2897,-261.7648 1486.394,-254.3199"/>
<polygon fill="#c0c0c0" stroke="#c0c0c0" stroke-width="5.0866" points="1486.9658,-258.7491 1496.7497,-253.8416 1486.555,-249.8571 1486.9658,-258.7491"/>
<text text-anchor="middle" x="1129.422" y="-280.3666" font-family="Times,serif" font-size="14.00" fill="#000000">10.3 bn USD</text>
</g>
<!-- DEU16 -->
<g id="node6" class="node">
<title>DEU16</title>
<polygon fill="#98f5ff" stroke="#000000" points="1367.6043,-359.6817 1204.0425,-359.6817 1204.0425,-284.6516 1367.6043,-284.6516 1367.6043,-359.6817"/>
<text text-anchor="middle" x="1285.8234" y="-343.2646" font-family="Times,serif" font-size="14.07" fill="#000000">Germany, Manufacture of</text>
<text text-anchor="middle" x="1285.8234" y="-326.3862" font-family="Times,serif" font-size="14.07" fill="#000000">fabricated metal products,</text>
<text text-anchor="middle" x="1285.8234" y="-309.5078" font-family="Times,serif" font-size="14.07" fill="#000000">except machinery and</text>
<text text-anchor="middle" x="1285.8234" y="-292.6295" font-family="Times,serif" font-size="14.07" fill="#000000">equipment, 167.6 bn USD</text>
</g>
<!-- DEU15&#45;&gt;DEU16 -->
<g id="edge11" class="edge">
<title>DEU15&#45;&gt;DEU16</title>
<path fill="none" stroke="#c0c0c0" stroke-width="4.8578" d="M767.1938,-310.3562C774.5851,-309.8786 781.937,-309.4707 789.0517,-309.1666 930.3028,-303.1293 1094.2744,-310.1481 1193.9995,-315.9819"/>
<polygon fill="#c0c0c0" stroke="#c0c0c0" stroke-width="4.8578" points="1193.809,-320.2285 1204.0434,-316.5781 1194.3129,-311.7423 1193.809,-320.2285"/>
<text text-anchor="middle" x="977.6108" y="-314.3666" font-family="Times,serif" font-size="14.00" fill="#000000">9.8 bn USD</text>
</g>
<!-- FRA15 -->
<g id="node8" class="node">
<title>FRA15</title>
<polygon fill="none" stroke="#000000" points="1054.0923,-377.2266 901.1294,-377.2266 901.1294,-341.1067 1054.0923,-341.1067 1054.0923,-377.2266"/>
<text text-anchor="middle" x="977.6108" y="-362.6741" font-family="Times,serif" font-size="11.69" fill="#000000">France, Manufacture of basic</text>
<text text-anchor="middle" x="977.6108" y="-348.6442" font-family="Times,serif" font-size="11.69" fill="#000000">metals, 43.1 bn USD</text>
</g>
<!-- DEU15&#45;&gt;FRA15 -->
<g id="edge26" class="edge">
<title>DEU15&#45;&gt;FRA15</title>
<path fill="none" stroke="#c0c0c0" stroke-width="1.1778" stroke-dasharray="5,2" d="M767.195,-334.0962C774.586,-335.1674 781.9376,-336.2036 789.0517,-337.1666 822.2062,-341.6546 858.7162,-346.0426 890.7071,-349.7043"/>
<polygon fill="#c0c0c0" stroke="#c0c0c0" stroke-width="1.1778" points="890.5935,-353.2138 900.925,-350.8668 891.3848,-346.2587 890.5935,-353.2138"/>
<text text-anchor="middle" x="825.7996" y="-350.3666" font-family="Times,serif" font-size="14.00" fill="#000000">1.4 bn USD</text>
</g>
<!-- ITA15 -->
<g id="node9" class="node">
<title>ITA15</title>
<polygon fill="none" stroke="#000000" points="1053.7032,-446.442 901.5185,-446.442 901.5185,-407.8912 1053.7032,-407.8912 1053.7032,-446.442"/>
<text text-anchor="middle" x="977.6108" y="-430.9509" font-family="Times,serif" font-size="12.61" fill="#000000">Italy, Manufacture of basic</text>
<text text-anchor="middle" x="977.6108" y="-415.8137" font-family="Times,serif" font-size="12.61" fill="#000000">metals, 73.1 bn USD</text>
</g>
<!-- DEU15&#45;&gt;ITA15 -->
<g id="edge28" class="edge">
<title>DEU15&#45;&gt;ITA15</title>
<path fill="none" stroke="#c0c0c0" stroke-width="1.407" stroke-dasharray="5,2" d="M719.379,-339.5554C740.5247,-348.4427 765.8807,-358.7336 789.0517,-367.1666 826.2313,-380.6979 868.122,-394.1981 902.9597,-404.9564"/>
<polygon fill="#c0c0c0" stroke="#c0c0c0" stroke-width="1.407" points="902.0019,-408.3235 912.5889,-407.9158 904.0584,-401.6324 902.0019,-408.3235"/>
<text text-anchor="middle" x="825.7996" y="-395.3666" font-family="Times,serif" font-size="14.00" fill="#000000">2.0 bn USD</text>
</g>
<!-- POL16 -->
<g id="node16" class="node">
<title>POL16</title>
<polygon fill="none" stroke="#000000" points="1042.9966,-97.6282 912.2251,-97.6282 912.2251,-36.7051 1042.9966,-36.7051 1042.9966,-97.6282"/>
<text text-anchor="middle" x="977.6108" y="-83.7171" font-family="Times,serif" font-size="11.03" fill="#000000">Poland, Manufacture of</text>
<text text-anchor="middle" x="977.6108" y="-70.4767" font-family="Times,serif" font-size="11.03" fill="#000000">fabricated metal products,</text>
<text text-anchor="middle" x="977.6108" y="-57.2363" font-family="Times,serif" font-size="11.03" fill="#000000">except machinery and</text>
<text text-anchor="middle" x="977.6108" y="-43.996" font-family="Times,serif" font-size="11.03" fill="#000000">equipment, 29.6 bn USD</text>
</g>
<!-- DEU15&#45;&gt;POL16 -->
<g id="edge30" class="edge">
<title>DEU15&#45;&gt;POL16</title>
<path fill="none" stroke="#c0c0c0" stroke-width="1.0197" stroke-dasharray="5,2" d="M691.0792,-298.7976C712.7359,-276.4292 750.3411,-240.8416 789.0517,-219.3666 819.0049,-202.7499 839.6464,-221.6391 862.5475,-196.1666 889.5289,-166.1558 854.8676,-138.2983 880.5475,-107.1666 886.7451,-99.6533 894.5846,-93.5338 903.1105,-88.5535"/>
<polygon fill="#c0c0c0" stroke="#c0c0c0" stroke-width="1.0197" points="904.9862,-91.5214 912.2038,-83.7653 901.7248,-85.3276 904.9862,-91.5214"/>
<text text-anchor="middle" x="825.7996" y="-223.3666" font-family="Times,serif" font-size="14.00" fill="#000000">1.1 bn USD</text>
</g>
<!-- DEU16&#45;&gt;DEU20 -->
<g id="edge5" class="edge">
<title>DEU16&#45;&gt;DEU20</title>
<path fill="none" stroke="#c0c0c0" stroke-width="7.1951" d="M1367.5123,-303.6513C1403.7534,-295.437 1447.1424,-285.6026 1487.0214,-276.5637"/>
<polygon fill="#c0c0c0" stroke="#c0c0c0" stroke-width="7.1951" points="1488.4473,-282.696 1496.8082,-274.3455 1485.6639,-270.4161 1488.4473,-282.696"/>
<text text-anchor="middle" x="1442.2247" y="-298.3666" font-family="Times,serif" font-size="14.00" fill="#000000">15.1 bn USD</text>
</g>
<!-- DEU19 -->
<g id="node15" class="node">
<title>DEU19</title>
<polygon fill="#98f5ff" stroke="#000000" points="1694.8791,-436.2932 1520.9132,-436.2932 1520.9132,-374.04 1694.8791,-374.04 1694.8791,-436.2932"/>
<text text-anchor="middle" x="1607.8962" y="-418.823" font-family="Times,serif" font-size="15.17" fill="#000000">Germany, Manufacture of</text>
<text text-anchor="middle" x="1607.8962" y="-400.6145" font-family="Times,serif" font-size="15.17" fill="#000000">machinery and equipment</text>
<text text-anchor="middle" x="1607.8962" y="-382.406" font-family="Times,serif" font-size="15.17" fill="#000000">n.e.c., 316.1 bn USD</text>
</g>
<!-- DEU16&#45;&gt;DEU19 -->
<g id="edge33" class="edge">
<title>DEU16&#45;&gt;DEU19</title>
<path fill="none" stroke="#c0c0c0" stroke-width="6.7242" d="M1367.5123,-343.2183C1411.0916,-354.4489 1465.0065,-368.3431 1510.7256,-380.1252"/>
<polygon fill="#c0c0c0" stroke="#c0c0c0" stroke-width="6.7242" points="1509.498,-385.8847 1520.6499,-382.6828 1512.4346,-374.4896 1509.498,-385.8847"/>
<text text-anchor="middle" x="1442.2247" y="-374.3666" font-family="Times,serif" font-size="14.00" fill="#000000">14.1 bn USD</text>
</g>
<!-- DEU28&#45;&gt;DEU20 -->
<g id="edge6" class="edge">
<title>DEU28&#45;&gt;DEU20</title>
<path fill="none" stroke="#c0c0c0" stroke-width="7.9462" d="M1828.3828,-333.7084C1788.9119,-318.5739 1742.1942,-300.6608 1701.9448,-285.2279"/>
<polygon fill="#c0c0c0" stroke="#c0c0c0" stroke-width="7.9462" points="1704.2228,-278.6549 1692.3963,-281.5667 1699.2441,-291.639 1704.2228,-278.6549"/>
<text text-anchor="middle" x="1773.5676" y="-329.3666" font-family="Times,serif" font-size="14.00" fill="#000000">16.9 bn USD</text>
</g>
<!-- FRA15&#45;&gt;DEU15 -->
<g id="edge7" class="edge">
<title>FRA15&#45;&gt;DEU15</title>
<path fill="none" stroke="#c0c0c0" stroke-width="1.4674" stroke-dasharray="5,2" d="M934.7397,-341.0763C913.4461,-333.0357 887.0826,-324.4715 862.5475,-320.3666 835.1271,-315.7791 805.1715,-314.0783 777.3114,-313.8619"/>
<polygon fill="#c0c0c0" stroke="#c0c0c0" stroke-width="1.4674" points="777.1558,-310.3618 767.1506,-313.8468 777.1453,-317.3618 777.1558,-310.3618"/>
<text text-anchor="middle" x="825.7996" y="-324.3666" font-family="Times,serif" font-size="14.00" fill="#000000">2.1 bn USD</text>
</g>
<!-- ITA15&#45;&gt;DEU15 -->
<g id="edge8" class="edge">
<title>ITA15&#45;&gt;DEU15</title>
<path fill="none" stroke="#c0c0c0" stroke-width="1.6078" stroke-dasharray="5,2" d="M901.394,-433.9878C866.0974,-434.4483 824.2752,-431.0563 789.0517,-417.1666 751.6688,-402.4254 717.5538,-370.6962 695.9808,-347.3161"/>
<polygon fill="#c0c0c0" stroke="#c0c0c0" stroke-width="1.6078" points="698.4527,-344.8308 689.1589,-339.7439 693.2519,-349.5162 698.4527,-344.8308"/>
<text text-anchor="middle" x="825.7996" y="-436.3666" font-family="Times,serif" font-size="14.00" fill="#000000">2.4 bn USD</text>
</g>
<!-- ITA15&#45;&gt;DEU16 -->
<g id="edge13" class="edge">
<title>ITA15&#45;&gt;DEU16</title>
<path fill="none" stroke="#c0c0c0" stroke-dasharray="5,2" d="M1034.1418,-407.908C1078.969,-392.6365 1142.5087,-370.9902 1194.5283,-353.2685"/>
<polygon fill="#c0c0c0" stroke="#c0c0c0" points="1195.7633,-356.5454 1204.1004,-350.0075 1193.5059,-349.9193 1195.7633,-356.5454"/>
<text text-anchor="middle" x="1129.422" y="-390.3666" font-family="Times,serif" font-size="14.00" fill="#000000">1.0 bn USD</text>
</g>
<!-- DEU24 -->
<g id="node10" class="node">
<title>DEU24</title>
<polygon fill="#98f5ff" stroke="#000000" points="465.826,-387.4303 299.8551,-387.4303 299.8551,-328.903 465.826,-328.903 465.826,-387.4303"/>
<text text-anchor="middle" x="382.8405" y="-370.8574" font-family="Times,serif" font-size="14.10" fill="#000000">Germany, Electricity, gas,</text>
<text text-anchor="middle" x="382.8405" y="-353.9364" font-family="Times,serif" font-size="14.10" fill="#000000">steam and air conditioning</text>
<text text-anchor="middle" x="382.8405" y="-337.0153" font-family="Times,serif" font-size="14.10" fill="#000000">supply, 171.1 bn USD</text>
</g>
<!-- DEU24&#45;&gt;DEU15 -->
<g id="edge9" class="edge">
<title>DEU24&#45;&gt;DEU15</title>
<path fill="none" stroke="#c0c0c0" stroke-width="2.8443" d="M466.1713,-346.9385C497.652,-342.6968 533.8901,-337.814 567.1155,-333.3372"/>
<polygon fill="#c0c0c0" stroke="#c0c0c0" stroke-width="2.8443" points="567.8785,-336.7661 577.3215,-331.962 566.9437,-329.8288 567.8785,-336.7661"/>
<text text-anchor="middle" x="522.2684" y="-347.3666" font-family="Times,serif" font-size="14.00" fill="#000000">5.2 bn USD</text>
</g>
<!-- DEU31 -->
<g id="node11" class="node">
<title>DEU31</title>
<polygon fill="#98f5ff" stroke="#000000" points="471.2008,-304.6997 294.4803,-304.6997 294.4803,-247.6335 471.2008,-247.6335 471.2008,-304.6997"/>
<text text-anchor="middle" x="382.8405" y="-288.4249" font-family="Times,serif" font-size="13.62" fill="#000000">Germany, Land transport and</text>
<text text-anchor="middle" x="382.8405" y="-272.0805" font-family="Times,serif" font-size="13.62" fill="#000000">transport via pipelines,</text>
<text text-anchor="middle" x="382.8405" y="-255.7362" font-family="Times,serif" font-size="13.62" fill="#000000">130.0 bn USD</text>
</g>
<!-- DEU31&#45;&gt;DEU15 -->
<g id="edge10" class="edge">
<title>DEU31&#45;&gt;DEU15</title>
<path fill="none" stroke="#c0c0c0" stroke-width="2.0888" d="M471.2559,-289.3017C501.5588,-293.8035 535.7638,-298.8851 567.252,-303.563"/>
<polygon fill="#c0c0c0" stroke="#c0c0c0" stroke-width="2.0888" points="566.9658,-307.0588 577.3716,-305.0663 567.9945,-300.1348 566.9658,-307.0588"/>
<text text-anchor="middle" x="522.2684" y="-305.3666" font-family="Times,serif" font-size="14.00" fill="#000000">3.5 bn USD</text>
</g>
<!-- DEU50 -->
<g id="node12" class="node">
<title>DEU50</title>
<polygon fill="#98f5ff" stroke="#000000" points="1074.7375,-590.9937 880.4842,-590.9937 880.4842,-529.3395 1074.7375,-529.3395 1074.7375,-590.9937"/>
<text text-anchor="middle" x="977.6108" y="-573.6233" font-family="Times,serif" font-size="14.95" fill="#000000">Germany, Administrative and</text>
<text text-anchor="middle" x="977.6108" y="-555.681" font-family="Times,serif" font-size="14.95" fill="#000000">support service activities,</text>
<text text-anchor="middle" x="977.6108" y="-537.7388" font-family="Times,serif" font-size="14.95" fill="#000000">278.4 bn USD</text>
</g>
<!-- DEU50&#45;&gt;DEU16 -->
<g id="edge12" class="edge">
<title>DEU50&#45;&gt;DEU16</title>
<path fill="none" stroke="#c0c0c0" stroke-width="2.6708" d="M1026.9095,-529.3299C1068.3143,-501.4652 1126.8521,-457.2298 1166.1699,-407.1666 1177.7125,-392.4696 1170.8944,-382.3194 1184.1699,-369.1666 1187.7892,-365.5809 1191.7325,-362.2368 1195.8956,-359.1224"/>
<polygon fill="#c0c0c0" stroke="#c0c0c0" stroke-width="2.6708" points="1197.914,-361.982 1204.1452,-353.4133 1193.9305,-356.226 1197.914,-361.982"/>
<text text-anchor="middle" x="1129.422" y="-481.3666" font-family="Times,serif" font-size="14.00" fill="#000000">4.8 bn USD</text>
</g>
<!-- CZE13 -->
<g id="node13" class="node">
<title>CZE13</title>
<polygon fill="none" stroke="#000000" points="1042.7959,-222.5172 912.4258,-222.5172 912.4258,-179.8161 1042.7959,-179.8161 1042.7959,-222.5172"/>
<text text-anchor="middle" x="977.6108" y="-209.7539" font-family="Times,serif" font-size="9.54" fill="#000000">Czech Republic, Manufacture</text>
<text text-anchor="middle" x="977.6108" y="-198.3042" font-family="Times,serif" font-size="9.54" fill="#000000">of rubber and plastic</text>
<text text-anchor="middle" x="977.6108" y="-186.8545" font-family="Times,serif" font-size="9.54" fill="#000000">products, 12.6 bn USD</text>
</g>
<!-- CZE13&#45;&gt;CZE20 -->
<g id="edge14" class="edge">
<title>CZE13&#45;&gt;CZE20</title>
<path fill="none" stroke="#c0c0c0" stroke-width="1.3885" d="M1042.9748,-196.2889C1087.7754,-192.9457 1147.7548,-188.4698 1196.8952,-184.8028"/>
<polygon fill="#c0c0c0" stroke="#c0c0c0" stroke-width="1.3885" points="1197.1769,-188.2916 1206.8887,-184.057 1196.656,-181.311 1197.1769,-188.2916"/>
<text text-anchor="middle" x="1129.422" y="-196.3666" font-family="Times,serif" font-size="14.00" fill="#000000">1.9 bn USD</text>
</g>
<!-- CZE28 -->
<g id="node14" class="node">
<title>CZE28</title>
<polygon fill="none" stroke="#000000" points="1036.7974,-162.5684 918.4243,-162.5684 918.4243,-115.7649 1036.7974,-115.7649 1036.7974,-162.5684"/>
<text text-anchor="middle" x="977.6108" y="-151.1666" font-family="Times,serif" font-size="8.00" fill="#000000">Czech Republic, Wholesale and</text>
<text text-anchor="middle" x="977.6108" y="-141.5666" font-family="Times,serif" font-size="8.00" fill="#000000">retail trade and repair of</text>
<text text-anchor="middle" x="977.6108" y="-131.9666" font-family="Times,serif" font-size="8.00" fill="#000000">motor vehicles and</text>
<text text-anchor="middle" x="977.6108" y="-122.3666" font-family="Times,serif" font-size="8.00" fill="#000000">motorcycles, 5.2 bn USD</text>
</g>
<!-- CZE28&#45;&gt;CZE20 -->
<g id="edge15" class="edge">
<title>CZE28&#45;&gt;CZE20</title>
<path fill="none" stroke="#c0c0c0" stroke-width="1.2128" d="M1037.0373,-146.6862C1082.2999,-152.4136 1145.3536,-160.3921 1196.6562,-166.8838"/>
<polygon fill="#c0c0c0" stroke="#c0c0c0" stroke-width="1.2128" points="1196.3909,-170.378 1206.7512,-168.1611 1197.2697,-163.4334 1196.3909,-170.378"/>
<text text-anchor="middle" x="1129.422" y="-165.3666" font-family="Times,serif" font-size="14.00" fill="#000000">1.5 bn USD</text>
</g>
<!-- DEU19&#45;&gt;HUN20 -->
<g id="edge18" class="edge">
<title>DEU19&#45;&gt;HUN20</title>
<path fill="none" stroke="#c0c0c0" stroke-width="1.617" stroke-dasharray="5,2" d="M1694.9859,-406.032C1741.5359,-404.6888 1792.7976,-399.7241 1810.3155,-385.1666 1832.3836,-366.8279 1809.1558,-344.5258 1828.3155,-323.1666 1830.266,-320.9922 1832.3678,-318.9461 1834.5905,-317.021"/>
<polygon fill="#c0c0c0" stroke="#c0c0c0" stroke-width="1.617" points="1836.7436,-319.7807 1842.5689,-310.9311 1832.4963,-314.2164 1836.7436,-319.7807"/>
<text text-anchor="middle" x="1773.5676" y="-407.3666" font-family="Times,serif" font-size="14.00" fill="#000000">2.4 bn USD</text>
</g>
<!-- POL16&#45;&gt;POL20 -->
<g id="edge21" class="edge">
<title>POL16&#45;&gt;POL20</title>
<path fill="none" stroke="#c0c0c0" stroke-width="1.5247" d="M1043.1986,-71.8513C1208.4284,-83.653 1641.8565,-114.6111 1828.3073,-127.9286"/>
<polygon fill="#c0c0c0" stroke="#c0c0c0" stroke-width="1.5247" points="1828.1207,-131.4241 1838.3447,-128.6455 1828.6195,-124.4419 1828.1207,-131.4241"/>
<text text-anchor="middle" x="1442.2247" y="-107.3666" font-family="Times,serif" font-size="14.00" fill="#000000">2.2 bn USD</text>
</g>
<!-- POL28 -->
<g id="node17" class="node">
<title>POL28</title>
<polygon fill="none" stroke="#000000" points="1678.738,-60.5008 1537.0544,-60.5008 1537.0544,.1675 1678.738,.1675 1678.738,-60.5008"/>
<text text-anchor="middle" x="1607.8962" y="-46.5208" font-family="Times,serif" font-size="10.90" fill="#000000">Poland, Wholesale and retail</text>
<text text-anchor="middle" x="1607.8962" y="-33.4375" font-family="Times,serif" font-size="10.90" fill="#000000">trade and repair of motor</text>
<text text-anchor="middle" x="1607.8962" y="-20.3541" font-family="Times,serif" font-size="10.90" fill="#000000">vehicles and motorcycles,</text>
<text text-anchor="middle" x="1607.8962" y="-7.2708" font-family="Times,serif" font-size="10.90" fill="#000000">27.4 bn USD</text>
</g>
<!-- POL28&#45;&gt;POL20 -->
<g id="edge22" class="edge">
<title>POL28&#45;&gt;POL20</title>
<path fill="none" stroke="#c0c0c0" stroke-width="1.4969" d="M1678.9303,-31.1758C1718.7772,-33.8168 1768.6908,-40.6542 1810.3155,-57.3666 1836.7107,-67.9644 1862.5757,-86.6675 1882.069,-102.9629"/>
<polygon fill="#c0c0c0" stroke="#c0c0c0" stroke-width="1.4969" points="1879.8745,-105.6916 1889.7481,-109.5338 1884.4256,-100.3729 1879.8745,-105.6916"/>
<text text-anchor="middle" x="1773.5676" y="-62.3666" font-family="Times,serif" font-size="14.00" fill="#000000">2.2 bn USD</text>
</g>
<!-- DEU44 -->
<g id="node18" class="node">
<title>DEU44</title>
<polygon fill="#98f5ff" stroke="#000000" points="1694.6531,-501.5684 1521.1392,-501.5684 1521.1392,-454.7649 1694.6531,-454.7649 1694.6531,-501.5684"/>
<text text-anchor="middle" x="1607.8962" y="-482.9666" font-family="Times,serif" font-size="16.00" fill="#000000">Germany, Real estate</text>
<text text-anchor="middle" x="1607.8962" y="-463.7666" font-family="Times,serif" font-size="16.00" fill="#000000">activities, 507.2 bn USD</text>
</g>
<!-- DEU44&#45;&gt;DEU28 -->
<g id="edge24" class="edge">
<title>DEU44&#45;&gt;DEU28</title>
<path fill="none" stroke="#c0c0c0" stroke-width="2.4089" d="M1694.7823,-462.3574C1731.2117,-454.2914 1773.5582,-442.9997 1810.3155,-428.1666 1824.7828,-422.3285 1839.6656,-414.7844 1853.521,-407.0038"/>
<polygon fill="#c0c0c0" stroke="#c0c0c0" stroke-width="2.4089" points="1855.5318,-409.8853 1862.4629,-401.8722 1852.0476,-403.814 1855.5318,-409.8853"/>
<text text-anchor="middle" x="1773.5676" y="-455.3666" font-family="Times,serif" font-size="14.00" fill="#000000">4.2 bn USD</text>
</g>
<!-- DEU11 -->
<g id="node19" class="node">
<title>DEU11</title>
<polygon fill="#98f5ff" stroke="#000000" points="754.3784,-207.8733 590.1896,-207.8733 590.1896,-148.4599 754.3784,-148.4599 754.3784,-207.8733"/>
<text text-anchor="middle" x="672.284" y="-190.9682" font-family="Times,serif" font-size="14.22" fill="#000000">Germany, Manufacture of</text>
<text text-anchor="middle" x="672.284" y="-173.8994" font-family="Times,serif" font-size="14.22" fill="#000000">chemicals and chemical</text>
<text text-anchor="middle" x="672.284" y="-156.8307" font-family="Times,serif" font-size="14.22" fill="#000000">products , 183.6 bn USD</text>
</g>
<!-- DEU11&#45;&gt;CZE13 -->
<g id="edge25" class="edge">
<title>DEU11&#45;&gt;CZE13</title>
<path fill="none" stroke="#c0c0c0" stroke-width="1.0043" stroke-dasharray="5,2" d="M754.3957,-175.4459C787.9932,-175.1744 827.2037,-175.9355 862.5475,-179.3666 875.5289,-180.6268 889.2294,-182.6243 902.4735,-184.9104"/>
<polygon fill="#c0c0c0" stroke="#c0c0c0" stroke-width="1.0043" points="902.0321,-188.387 912.493,-186.7074 903.2679,-181.497 902.0321,-188.387"/>
<text text-anchor="middle" x="825.7996" y="-183.3666" font-family="Times,serif" font-size="14.00" fill="#000000">1.1 bn USD</text>
</g>
<!-- FRA24 -->
<g id="node20" class="node">
<title>FRA24</title>
<polygon fill="none" stroke="#000000" points="753.4003,-476.7906 591.1677,-476.7906 591.1677,-419.5427 753.4003,-419.5427 753.4003,-476.7906"/>
<text text-anchor="middle" x="672.284" y="-460.5723" font-family="Times,serif" font-size="13.78" fill="#000000">France, Electricity, gas,</text>
<text text-anchor="middle" x="672.284" y="-444.0314" font-family="Times,serif" font-size="13.78" fill="#000000">steam and air conditioning</text>
<text text-anchor="middle" x="672.284" y="-427.4905" font-family="Times,serif" font-size="13.78" fill="#000000">supply, 142.7 bn USD</text>
</g>
<!-- FRA24&#45;&gt;FRA15 -->
<g id="edge27" class="edge">
<title>FRA24&#45;&gt;FRA15</title>
<path fill="none" stroke="#c0c0c0" stroke-width="1.8846" d="M753.5193,-473.7949C790.0646,-480.2011 831.7969,-479.8208 862.5475,-457.1666 884.2779,-441.1577 862.3399,-419.0909 880.5475,-399.1666 886.6874,-392.4479 894.1253,-386.8283 902.1212,-382.1347"/>
<polygon fill="#c0c0c0" stroke="#c0c0c0" stroke-width="1.8846" points="903.8136,-385.1988 910.9816,-377.3969 900.5128,-379.0258 903.8136,-385.1988"/>
<text text-anchor="middle" x="825.7996" y="-481.3666" font-family="Times,serif" font-size="14.00" fill="#000000">3.1 bn USD</text>
</g>
<!-- ITA26 -->
<g id="node21" class="node">
<title>ITA26</title>
<polygon fill="none" stroke="#000000" points="742.286,-603.4989 602.2821,-603.4989 602.2821,-494.8343 742.286,-494.8343 742.286,-603.4989"/>
<text text-anchor="middle" x="672.284" y="-588.7793" font-family="Times,serif" font-size="12.00" fill="#000000">Italy, Sewerage; waste</text>
<text text-anchor="middle" x="672.284" y="-574.3747" font-family="Times,serif" font-size="12.00" fill="#000000">collection, treatment and</text>
<text text-anchor="middle" x="672.284" y="-559.9701" font-family="Times,serif" font-size="12.00" fill="#000000">disposal activities;</text>
<text text-anchor="middle" x="672.284" y="-545.5655" font-family="Times,serif" font-size="12.00" fill="#000000">materials recovery;</text>
<text text-anchor="middle" x="672.284" y="-531.1609" font-family="Times,serif" font-size="12.00" fill="#000000">remediation activities and</text>
<text text-anchor="middle" x="672.284" y="-516.7563" font-family="Times,serif" font-size="12.00" fill="#000000">other waste management</text>
<text text-anchor="middle" x="672.284" y="-502.3517" font-family="Times,serif" font-size="12.00" fill="#000000">services , 51.5 bn USD</text>
</g>
<!-- ITA26&#45;&gt;ITA15 -->
<g id="edge29" class="edge">
<title>ITA26&#45;&gt;ITA15</title>
<path fill="none" stroke="#c0c0c0" stroke-width="3.9076" d="M742.6129,-535.4621C779.2337,-527.0544 824.2404,-514.6968 862.5475,-498.1666 891.0874,-485.8512 920.8891,-467.2791 943.0108,-452.2184"/>
<polygon fill="#c0c0c0" stroke="#c0c0c0" stroke-width="3.9076" points="945.1539,-454.9919 951.3934,-446.4292 941.176,-449.232 945.1539,-454.9919"/>
<text text-anchor="middle" x="825.7996" y="-526.3666" font-family="Times,serif" font-size="14.00" fill="#000000">7.7 bn USD</text>
</g>
<!-- POL15 -->
<g id="node22" class="node">
<title>POL15</title>
<polygon fill="none" stroke="#000000" points="739.1459,-85.1666 605.4221,-85.1666 605.4221,-49.1666 739.1459,-49.1666 739.1459,-85.1666"/>
<text text-anchor="middle" x="672.284" y="-70.1571" font-family="Times,serif" font-size="9.97" fill="#000000">Poland, Manufacture of basic</text>
<text text-anchor="middle" x="672.284" y="-58.1951" font-family="Times,serif" font-size="9.97" fill="#000000">metals, 16.1 bn USD</text>
</g>
<!-- POL15&#45;&gt;POL16 -->
<g id="edge31" class="edge">
<title>POL15&#45;&gt;POL16</title>
<path fill="none" stroke="#c0c0c0" stroke-width="1.2259" d="M739.2893,-67.1666C787.3261,-67.1666 852.0926,-67.1666 901.9838,-67.1666"/>
<polygon fill="#c0c0c0" stroke="#c0c0c0" stroke-width="1.2259" points="902.0733,-70.6667 912.0732,-67.1666 902.0732,-63.6667 902.0733,-70.6667"/>
<text text-anchor="middle" x="825.7996" y="-71.3666" font-family="Times,serif" font-size="14.00" fill="#000000">1.6 bn USD</text>
</g>
<!-- ITA19 -->
<g id="node23" class="node">
<title>ITA19</title>
<polygon fill="none" stroke="#000000" points="1365.3596,-435.9205 1206.2871,-435.9205 1206.2871,-378.4128 1365.3596,-378.4128 1365.3596,-435.9205"/>
<text text-anchor="middle" x="1285.8234" y="-419.605" font-family="Times,serif" font-size="13.82" fill="#000000">Italy, Manufacture of</text>
<text text-anchor="middle" x="1285.8234" y="-403.0205" font-family="Times,serif" font-size="13.82" fill="#000000">machinery and equipment</text>
<text text-anchor="middle" x="1285.8234" y="-386.4361" font-family="Times,serif" font-size="13.82" fill="#000000">n.e.c., 145.7 bn USD</text>
</g>
<!-- ITA19&#45;&gt;DEU19 -->
<g id="edge32" class="edge">
<title>ITA19&#45;&gt;DEU19</title>
<path fill="none" stroke="#c0c0c0" stroke-width="1.8105" stroke-dasharray="5,2" d="M1365.4369,-406.6722C1409.3439,-406.3996 1464.2097,-406.0589 1510.6391,-405.7706"/>
<polygon fill="#c0c0c0" stroke="#c0c0c0" stroke-width="1.8105" points="1510.7374,-409.2701 1520.7154,-405.708 1510.6938,-402.2703 1510.7374,-409.2701"/>
<text text-anchor="middle" x="1442.2247" y="-410.3666" font-family="Times,serif" font-size="14.00" fill="#000000">2.9 bn USD</text>
</g>
<!-- DEU51 -->
<g id="node24" class="node">
<title>DEU51</title>
<polygon fill="#98f5ff" stroke="#000000" points="185.2472,-499.7709 -.0825,-499.7709 -.0825,-418.5623 185.2472,-418.5623 185.2472,-499.7709"/>
<text text-anchor="middle" x="92.5824" y="-482.0117" font-family="Times,serif" font-size="15.23" fill="#000000">Germany, Public</text>
<text text-anchor="middle" x="92.5824" y="-463.7356" font-family="Times,serif" font-size="15.23" fill="#000000">administration and defence;</text>
<text text-anchor="middle" x="92.5824" y="-445.4596" font-family="Times,serif" font-size="15.23" fill="#000000">compulsory social security,</text>
<text text-anchor="middle" x="92.5824" y="-427.1835" font-family="Times,serif" font-size="15.23" fill="#000000">326.4 bn USD</text>
</g>
<!-- DEU51&#45;&gt;DEU24 -->
<g id="edge34" class="edge">
<title>DEU51&#45;&gt;DEU24</title>
<path fill="none" stroke="#c0c0c0" stroke-width="5.2676" d="M185.2199,-426.9319C218.5919,-415.3196 256.2434,-402.2181 289.6614,-390.5898"/>
<polygon fill="#c0c0c0" stroke="#c0c0c0" stroke-width="5.2676" points="291.4959,-394.8317 299.4257,-387.1921 288.4664,-386.1255 291.4959,-394.8317"/>
<text text-anchor="middle" x="239.9127" y="-424.3666" font-family="Times,serif" font-size="14.00" fill="#000000">10.8 bn USD</text>
</g>
<!-- NLD45 -->
<g id="node25" class="node">
<title>NLD45</title>
<polygon fill="none" stroke="#000000" points="165.1951,-400.5982 19.9696,-400.5982 19.9696,-315.7351 165.1951,-315.7351 165.1951,-400.5982"/>
<text text-anchor="middle" x="92.5824" y="-384.9173" font-family="Times,serif" font-size="12.74" fill="#000000">Netherlands, Legal and</text>
<text text-anchor="middle" x="92.5824" y="-369.6312" font-family="Times,serif" font-size="12.74" fill="#000000">accounting activities;</text>
<text text-anchor="middle" x="92.5824" y="-354.3451" font-family="Times,serif" font-size="12.74" fill="#000000">activities of head offices;</text>
<text text-anchor="middle" x="92.5824" y="-339.059" font-family="Times,serif" font-size="12.74" fill="#000000">management consultancy</text>
<text text-anchor="middle" x="92.5824" y="-323.7729" font-family="Times,serif" font-size="12.74" fill="#000000">activities, 78.5 bn USD</text>
</g>
<!-- NLD45&#45;&gt;DEU24 -->
<g id="edge35" class="edge">
<title>NLD45&#45;&gt;DEU24</title>
<path fill="none" stroke="#c0c0c0" stroke-width="1.8548" stroke-dasharray="5,2" d="M165.4521,-358.1666C203.071,-358.1666 249.3864,-358.1666 289.5868,-358.1666"/>
<polygon fill="#c0c0c0" stroke="#c0c0c0" stroke-width="1.8548" points="289.6665,-361.6667 299.6665,-358.1666 289.6664,-354.6667 289.6665,-361.6667"/>
<text text-anchor="middle" x="239.9127" y="-362.3666" font-family="Times,serif" font-size="14.00" fill="#000000">3.0 bn USD</text>
</g>
<!-- DEU34 -->
<g id="node26" class="node">
<title>DEU34</title>
<polygon fill="#98f5ff" stroke="#000000" points="183.4257,-298.5956 1.739,-298.5956 1.739,-239.7376 183.4257,-239.7376 183.4257,-298.5956"/>
<text text-anchor="middle" x="92.5824" y="-281.7735" font-family="Times,serif" font-size="14.01" fill="#000000">Germany, Warehousing and</text>
<text text-anchor="middle" x="92.5824" y="-264.9643" font-family="Times,serif" font-size="14.01" fill="#000000">support activities for</text>
<text text-anchor="middle" x="92.5824" y="-248.1552" font-family="Times,serif" font-size="14.01" fill="#000000">transportation, 162.2 bn USD</text>
</g>
<!-- DEU34&#45;&gt;DEU31 -->
<g id="edge36" class="edge">
<title>DEU34&#45;&gt;DEU31</title>
<path fill="none" stroke="#c0c0c0" stroke-width="8.303" d="M183.6255,-271.3623C215.7181,-272.1362 251.9284,-273.0095 284.5898,-273.7972"/>
<polygon fill="#c0c0c0" stroke="#c0c0c0" stroke-width="8.303" points="284.4314,-281.0604 294.6037,-274.0387 284.7818,-266.5345 284.4314,-281.0604"/>
<text text-anchor="middle" x="239.9127" y="-277.3666" font-family="Times,serif" font-size="14.00" fill="#000000">17.7 bn USD</text>
</g>
<!-- DEU27 -->
<g id="node27" class="node">
<title>DEU27</title>
<polygon fill="#98f5ff" stroke="#000000" points="1387.6305,-500.7058 1184.0163,-500.7058 1184.0163,-455.6275 1387.6305,-455.6275 1387.6305,-500.7058"/>
<text text-anchor="middle" x="1285.8234" y="-482.7965" font-family="Times,serif" font-size="15.43" fill="#000000">Germany, Construction, 366.6</text>
<text text-anchor="middle" x="1285.8234" y="-464.2769" font-family="Times,serif" font-size="15.43" fill="#000000">bn USD</text>
</g>
<!-- DEU27&#45;&gt;DEU44 -->
<g id="edge37" class="edge">
<title>DEU27&#45;&gt;DEU44</title>
<path fill="none" stroke="#c0c0c0" stroke-width="17" d="M1387.7292,-478.1666C1427.0622,-478.1666 1471.8604,-478.1666 1510.7328,-478.1666"/>
<polygon fill="#c0c0c0" stroke="#c0c0c0" stroke-width="17" points="1511.004,-493.0417 1521.0039,-478.1666 1511.0037,-463.2917 1511.004,-493.0417"/>
<text text-anchor="middle" x="1442.2247" y="-482.3666" font-family="Times,serif" font-size="14.00" fill="#000000">37.5 bn USD</text>
</g>
<!-- DEU45 -->
<g id="node28" class="node">
<title>DEU45</title>
<polygon fill="#98f5ff" stroke="#000000" points="770.82,-714.5724 573.748,-714.5724 573.748,-621.7609 770.82,-621.7609 770.82,-714.5724"/>
<text text-anchor="middle" x="672.284" y="-697.8836" font-family="Times,serif" font-size="14.15" fill="#000000">Germany, Legal and accounting</text>
<text text-anchor="middle" x="672.284" y="-680.9025" font-family="Times,serif" font-size="14.15" fill="#000000">activities; activities of</text>
<text text-anchor="middle" x="672.284" y="-663.9213" font-family="Times,serif" font-size="14.15" fill="#000000">head offices; management</text>
<text text-anchor="middle" x="672.284" y="-646.9402" font-family="Times,serif" font-size="14.15" fill="#000000">consultancy activities, 176.1</text>
<text text-anchor="middle" x="672.284" y="-629.9591" font-family="Times,serif" font-size="14.15" fill="#000000">bn USD</text>
</g>
<!-- DEU45&#45;&gt;DEU50 -->
<g id="edge38" class="edge">
<title>DEU45&#45;&gt;DEU50</title>
<path fill="none" stroke="#c0c0c0" stroke-width="5.4042" d="M770.9932,-633.2513C806.1094,-620.83 845.5964,-606.8627 880.5715,-594.4913"/>
<polygon fill="#c0c0c0" stroke="#c0c0c0" stroke-width="5.4042" points="882.4585,-598.8397 890.3092,-591.0469 879.3047,-589.9237 882.4585,-598.8397"/>
<text text-anchor="middle" x="825.7996" y="-627.3666" font-family="Times,serif" font-size="14.00" fill="#000000">11.1 bn USD</text>
</g>
</g>
</svg>
