<?xml version="1.0" encoding="UTF-8" standalone="no"?>
<!DOCTYPE svg PUBLIC "-//W3C//DTD SVG 1.1//EN"
 "http://www.w3.org/Graphics/SVG/1.1/DTD/svg11.dtd">
<!-- Generated by graphviz version 2.38.0 (20140413.2041)
 -->
<!-- Title: graphname Pages: 1 -->
<svg width="2011pt" height="723pt"
 viewBox="0.00 0.00 2010.97 722.62" xmlns="http://www.w3.org/2000/svg" xmlns:xlink="http://www.w3.org/1999/xlink">
<g id="graph0" class="graph" transform="scale(1 1) rotate(0) translate(4 718.619)">
<title>graphname</title>
<polygon fill="white" stroke="none" points="-4,4 -4,-718.619 2006.97,-718.619 2006.97,4 -4,4"/>
<!-- CZE20 -->
<g id="node1" class="node"><title>CZE20</title>
<polygon fill="none" stroke="black" points="1364.74,-210.587 1206.91,-210.587 1206.91,-145.747 1364.74,-145.747 1364.74,-210.587"/>
<text text-anchor="middle" x="1285.82" y="-195.954" font-family="Times,serif" font-size="11.86">Czech Republic, Manufacture</text>
<text text-anchor="middle" x="1285.82" y="-181.724" font-family="Times,serif" font-size="11.86">of motor vehicles, trailers</text>
<text text-anchor="middle" x="1285.82" y="-167.494" font-family="Times,serif" font-size="11.86">and semi&#45;trailers, 47.4 bn</text>
<text text-anchor="middle" x="1285.82" y="-153.264" font-family="Times,serif" font-size="11.86">USD</text>
</g>
<!-- DEU20 -->
<g id="node2" class="node"><title>DEU20</title>
<polygon fill="#98f5ff" stroke="black" points="1718.74,-281.451 1497.05,-281.451 1497.05,-216.882 1718.74,-216.882 1718.74,-281.451"/>
<text text-anchor="middle" x="1607.9" y="-263.363" font-family="Times,serif" font-size="15.77">Germany, Manufacture of motor</text>
<text text-anchor="middle" x="1607.9" y="-244.435" font-family="Times,serif" font-size="15.77">vehicles, trailers and</text>
<text text-anchor="middle" x="1607.9" y="-225.507" font-family="Times,serif" font-size="15.77">semi&#45;trailers, 445.5 bn USD</text>
</g>
<!-- CZE20&#45;&gt;DEU20 -->
<g id="edge1" class="edge"><title>CZE20&#45;&gt;DEU20</title>
<path fill="none" stroke="grey" stroke-width="3.13916" stroke-dasharray="5,2" d="M1365.08,-170.063C1400.39,-168.585 1442.31,-169.894 1478.97,-179.367 1504.48,-185.959 1530.41,-198.74 1552.19,-211.584"/>
<polygon fill="grey" stroke="grey" stroke-width="3.13916" points="1550.58,-214.699 1560.95,-216.88 1554.2,-208.709 1550.58,-214.699"/>
<text text-anchor="middle" x="1442.22" y="-184.367" font-family="Times,serif" font-size="14.00">5.9 bn USD</text>
</g>
<!-- DEU20&#45;&gt;CZE20 -->
<g id="edge16" class="edge"><title>DEU20&#45;&gt;CZE20</title>
<path fill="none" stroke="grey" stroke-width="1.94461" stroke-dasharray="5,2" d="M1497.02,-223.439C1490.92,-222.051 1484.87,-220.686 1478.97,-219.367 1445.03,-211.774 1407.64,-203.695 1374.94,-196.72"/>
<polygon fill="grey" stroke="grey" stroke-width="1.94461" points="1375.47,-193.253 1364.96,-194.593 1374.01,-200.099 1375.47,-193.253"/>
<text text-anchor="middle" x="1442.22" y="-224.367" font-family="Times,serif" font-size="14.00">3.2 bn USD</text>
</g>
<!-- HUN20 -->
<g id="node3" class="node"><title>HUN20</title>
<polygon fill="none" stroke="black" points="1994.3,-310.78 1836.99,-310.78 1836.99,-263.554 1994.3,-263.554 1994.3,-310.78"/>
<text text-anchor="middle" x="1915.64" y="-297.07" font-family="Times,serif" font-size="11.00">Hungary, Manufacture of motor</text>
<text text-anchor="middle" x="1915.64" y="-283.866" font-family="Times,serif" font-size="11.00">vehicles, trailers and</text>
<text text-anchor="middle" x="1915.64" y="-270.662" font-family="Times,serif" font-size="11.00">semi&#45;trailers, 29.1 bn USD</text>
</g>
<!-- DEU20&#45;&gt;HUN20 -->
<g id="edge19" class="edge"><title>DEU20&#45;&gt;HUN20</title>
<path fill="none" stroke="grey" stroke-width="1.92434" stroke-dasharray="5,2" d="M1718.87,-237.917C1748.76,-237.197 1780.97,-238.582 1810.32,-244.367 1826.54,-247.565 1843.42,-253.313 1858.75,-259.579"/>
<polygon fill="grey" stroke="grey" stroke-width="1.92434" points="1857.5,-262.852 1868.07,-263.529 1860.23,-256.406 1857.5,-262.852"/>
<text text-anchor="middle" x="1773.57" y="-249.367" font-family="Times,serif" font-size="14.00">3.1 bn USD</text>
</g>
<!-- POL20 -->
<g id="node4" class="node"><title>POL20</title>
<polygon fill="none" stroke="black" points="1993.08,-158.829 1838.2,-158.829 1838.2,-109.504 1993.08,-109.504 1993.08,-158.829"/>
<text text-anchor="middle" x="1915.64" y="-144.457" font-family="Times,serif" font-size="11.43">Poland, Manufacture of motor</text>
<text text-anchor="middle" x="1915.64" y="-130.736" font-family="Times,serif" font-size="11.43">vehicles, trailers and</text>
<text text-anchor="middle" x="1915.64" y="-117.016" font-family="Times,serif" font-size="11.43">semi&#45;trailers, 37.2 bn USD</text>
</g>
<!-- DEU20&#45;&gt;POL20 -->
<g id="edge20" class="edge"><title>DEU20&#45;&gt;POL20</title>
<path fill="none" stroke="grey" stroke-width="1.90896" stroke-dasharray="5,2" d="M1648.23,-216.812C1672.38,-198.614 1704.73,-177.063 1736.82,-164.367 1753.65,-157.705 1791.56,-150.9 1828.07,-145.44"/>
<polygon fill="grey" stroke="grey" stroke-width="1.90896" points="1828.92,-148.852 1838.31,-143.937 1827.9,-141.927 1828.92,-148.852"/>
<text text-anchor="middle" x="1773.57" y="-169.367" font-family="Times,serif" font-size="14.00">3.1 bn USD</text>
</g>
<!-- DEU28 -->
<g id="node7" class="node"><title>DEU28</title>
<polygon fill="#98f5ff" stroke="black" points="2002.8,-401.888 1828.49,-401.888 1828.49,-332.445 2002.8,-332.445 2002.8,-401.888"/>
<text text-anchor="middle" x="1915.64" y="-386.298" font-family="Times,serif" font-size="12.75">Germany, Wholesale and retail</text>
<text text-anchor="middle" x="1915.64" y="-370.993" font-family="Times,serif" font-size="12.75">trade and repair of motor</text>
<text text-anchor="middle" x="1915.64" y="-355.688" font-family="Times,serif" font-size="12.75">vehicles and motorcycles,</text>
<text text-anchor="middle" x="1915.64" y="-340.382" font-family="Times,serif" font-size="12.75">79.2 bn USD</text>
</g>
<!-- DEU20&#45;&gt;DEU28 -->
<g id="edge23" class="edge"><title>DEU20&#45;&gt;DEU28</title>
<path fill="none" stroke="grey" stroke-width="1.59904" d="M1641.68,-281.478C1665.89,-303.276 1700.77,-330.623 1736.82,-345.167 1762.14,-355.383 1791.01,-361.179 1818.01,-364.386"/>
<polygon fill="grey" stroke="grey" stroke-width="1.59904" points="1817.94,-367.899 1828.26,-365.492 1818.69,-360.939 1817.94,-367.899"/>
<text text-anchor="middle" x="1773.57" y="-367.367" font-family="Times,serif" font-size="14.00">2.4 bn USD</text>
</g>
<!-- HUN20&#45;&gt;DEU20 -->
<g id="edge2" class="edge"><title>HUN20&#45;&gt;DEU20</title>
<path fill="none" stroke="grey" stroke-width="2.81114" stroke-dasharray="5,2" d="M1836.74,-277.551C1805.65,-273.709 1769.54,-269.237 1736.82,-265.167 1734.15,-264.835 1731.45,-264.499 1728.73,-264.16"/>
<polygon fill="grey" stroke="grey" stroke-width="2.81114" points="1729.16,-260.686 1718.8,-262.922 1728.29,-267.632 1729.16,-260.686"/>
<text text-anchor="middle" x="1773.57" y="-279.367" font-family="Times,serif" font-size="14.00">5.2 bn USD</text>
</g>
<!-- POL20&#45;&gt;CZE20 -->
<g id="edge17" class="edge"><title>POL20&#45;&gt;CZE20</title>
<path fill="none" stroke="grey" stroke-width="1.01821" stroke-dasharray="5,2" d="M1838.24,-138.061C1738.58,-143.348 1558.86,-153.596 1405.48,-166.167 1395.65,-166.972 1385.37,-167.893 1375.15,-168.859"/>
<polygon fill="grey" stroke="grey" stroke-width="1.01821" points="1374.59,-165.397 1364.97,-169.837 1375.26,-172.365 1374.59,-165.397"/>
<text text-anchor="middle" x="1607.9" y="-163.367" font-family="Times,serif" font-size="14.00">1.1 bn USD</text>
</g>
<!-- POL20&#45;&gt;DEU20 -->
<g id="edge3" class="edge"><title>POL20&#45;&gt;DEU20</title>
<path fill="none" stroke="grey" stroke-width="2.41281" stroke-dasharray="5,2" d="M1868.05,-158.764C1850.24,-167.677 1829.59,-177.442 1810.32,-185.167 1784.19,-195.637 1755.64,-205.578 1728.46,-214.368"/>
<polygon fill="grey" stroke="grey" stroke-width="2.41281" points="1727.36,-211.044 1718.91,-217.428 1729.5,-217.71 1727.36,-211.044"/>
<text text-anchor="middle" x="1773.57" y="-215.367" font-family="Times,serif" font-size="14.00">4.3 bn USD</text>
</g>
<!-- DEU15 -->
<g id="node5" class="node"><title>DEU15</title>
<polygon fill="#98f5ff" stroke="black" points="767.135,-339.479 577.433,-339.479 577.433,-298.854 767.135,-298.854 767.135,-339.479"/>
<text text-anchor="middle" x="672.284" y="-323.268" font-family="Times,serif" font-size="13.67">Germany, Manufacture of basic</text>
<text text-anchor="middle" x="672.284" y="-306.862" font-family="Times,serif" font-size="13.67">metals, 133.8 bn USD</text>
</g>
<!-- DEU15&#45;&gt;DEU20 -->
<g id="edge4" class="edge"><title>DEU15&#45;&gt;DEU20</title>
<path fill="none" stroke="grey" stroke-width="5.08658" d="M767.386,-307.431C774.713,-306.626 782,-305.86 789.052,-305.167 1036.44,-280.829 1326.97,-263.633 1486.6,-255.163"/>
<polygon fill="grey" stroke="grey" stroke-width="5.08658" points="1487.18,-259.59 1496.93,-254.618 1486.71,-250.701 1487.18,-259.59"/>
<text text-anchor="middle" x="1129.42" y="-284.367" font-family="Times,serif" font-size="14.00">10.3 bn USD</text>
</g>
<!-- DEU16 -->
<g id="node6" class="node"><title>DEU16</title>
<polygon fill="#98f5ff" stroke="black" points="1367.6,-359.682 1204.04,-359.682 1204.04,-284.652 1367.6,-284.652 1367.6,-359.682"/>
<text text-anchor="middle" x="1285.82" y="-343.265" font-family="Times,serif" font-size="14.07">Germany, Manufacture of</text>
<text text-anchor="middle" x="1285.82" y="-326.386" font-family="Times,serif" font-size="14.07">fabricated metal products,</text>
<text text-anchor="middle" x="1285.82" y="-309.508" font-family="Times,serif" font-size="14.07">except machinery and</text>
<text text-anchor="middle" x="1285.82" y="-292.629" font-family="Times,serif" font-size="14.07">equipment, 167.6 bn USD</text>
</g>
<!-- DEU15&#45;&gt;DEU16 -->
<g id="edge11" class="edge"><title>DEU15&#45;&gt;DEU16</title>
<path fill="none" stroke="grey" stroke-width="4.85779" d="M767.389,-311.237C774.715,-310.807 782.001,-310.44 789.052,-310.167 930.45,-304.679 1094.64,-311.184 1194.07,-316.544"/>
<polygon fill="grey" stroke="grey" stroke-width="4.85779" points="1193.86,-320.79 1204.08,-317.092 1194.33,-312.301 1193.86,-320.79"/>
<text text-anchor="middle" x="977.611" y="-315.367" font-family="Times,serif" font-size="14.00">9.8 bn USD</text>
</g>
<!-- FRA15 -->
<g id="node8" class="node"><title>FRA15</title>
<polygon fill="none" stroke="black" points="1054.09,-377.227 901.129,-377.227 901.129,-341.107 1054.09,-341.107 1054.09,-377.227"/>
<text text-anchor="middle" x="977.611" y="-362.674" font-family="Times,serif" font-size="11.69">France, Manufacture of basic</text>
<text text-anchor="middle" x="977.611" y="-348.644" font-family="Times,serif" font-size="11.69">metals, 43.1 bn USD</text>
</g>
<!-- DEU15&#45;&gt;FRA15 -->
<g id="edge26" class="edge"><title>DEU15&#45;&gt;FRA15</title>
<path fill="none" stroke="grey" stroke-width="1.17777" stroke-dasharray="5,2" d="M767.381,-334.099C774.709,-335.17 781.998,-336.205 789.052,-337.167 822.175,-341.683 858.667,-346.091 890.59,-349.762"/>
<polygon fill="grey" stroke="grey" stroke-width="1.17777" points="890.451,-353.269 900.784,-350.927 891.246,-346.314 890.451,-353.269"/>
<text text-anchor="middle" x="825.8" y="-351.367" font-family="Times,serif" font-size="14.00">1.4 bn USD</text>
</g>
<!-- ITA15 -->
<g id="node9" class="node"><title>ITA15</title>
<polygon fill="none" stroke="black" points="1053.7,-446.442 901.518,-446.442 901.518,-407.891 1053.7,-407.891 1053.7,-446.442"/>
<text text-anchor="middle" x="977.611" y="-430.951" font-family="Times,serif" font-size="12.61">Italy, Manufacture of basic</text>
<text text-anchor="middle" x="977.611" y="-415.814" font-family="Times,serif" font-size="12.61">metals, 73.1 bn USD</text>
</g>
<!-- DEU15&#45;&gt;ITA15 -->
<g id="edge28" class="edge"><title>DEU15&#45;&gt;ITA15</title>
<path fill="none" stroke="grey" stroke-width="1.40701" stroke-dasharray="5,2" d="M718.519,-339.498C739.743,-348.731 765.497,-359.5 789.052,-368.167 825.207,-381.47 865.937,-394.511 900.18,-404.935"/>
<polygon fill="grey" stroke="grey" stroke-width="1.40701" points="899.536,-408.396 910.121,-407.943 901.563,-401.696 899.536,-408.396"/>
<text text-anchor="middle" x="825.8" y="-397.367" font-family="Times,serif" font-size="14.00">2.0 bn USD</text>
</g>
<!-- POL16 -->
<g id="node16" class="node"><title>POL16</title>
<polygon fill="none" stroke="black" points="1043,-97.6282 912.225,-97.6282 912.225,-36.7051 1043,-36.7051 1043,-97.6282"/>
<text text-anchor="middle" x="977.611" y="-83.7171" font-family="Times,serif" font-size="11.03">Poland, Manufacture of</text>
<text text-anchor="middle" x="977.611" y="-70.4767" font-family="Times,serif" font-size="11.03">fabricated metal products,</text>
<text text-anchor="middle" x="977.611" y="-57.2363" font-family="Times,serif" font-size="11.03">except machinery and</text>
<text text-anchor="middle" x="977.611" y="-43.996" font-family="Times,serif" font-size="11.03">equipment, 29.6 bn USD</text>
</g>
<!-- DEU15&#45;&gt;POL16 -->
<g id="edge30" class="edge"><title>DEU15&#45;&gt;POL16</title>
<path fill="none" stroke="grey" stroke-width="1.01969" stroke-dasharray="5,2" d="M691.883,-298.789C713.323,-276.412 750.578,-240.817 789.052,-219.367 818.97,-202.686 839.646,-221.639 862.548,-196.167 889.529,-166.156 854.925,-138.345 880.548,-107.167 886.677,-99.7082 894.433,-93.6207 902.87,-88.6566"/>
<polygon fill="grey" stroke="grey" stroke-width="1.01969" points="904.677,-91.66 911.869,-83.8799 901.395,-85.4771 904.677,-91.66"/>
<text text-anchor="middle" x="825.8" y="-224.367" font-family="Times,serif" font-size="14.00">1.1 bn USD</text>
</g>
<!-- DEU16&#45;&gt;DEU20 -->
<g id="edge5" class="edge"><title>DEU16&#45;&gt;DEU20</title>
<path fill="none" stroke="grey" stroke-width="7.19506" d="M1367.59,-303.746C1403.78,-295.493 1447.19,-285.59 1487.06,-276.499"/>
<polygon fill="grey" stroke="grey" stroke-width="7.19506" points="1488.49,-282.63 1496.84,-274.268 1485.69,-270.354 1488.49,-282.63"/>
<text text-anchor="middle" x="1442.22" y="-299.367" font-family="Times,serif" font-size="14.00">15.1 bn USD</text>
</g>
<!-- DEU19 -->
<g id="node15" class="node"><title>DEU19</title>
<polygon fill="#98f5ff" stroke="black" points="1694.88,-436.293 1520.91,-436.293 1520.91,-374.04 1694.88,-374.04 1694.88,-436.293"/>
<text text-anchor="middle" x="1607.9" y="-418.823" font-family="Times,serif" font-size="15.17">Germany, Manufacture of</text>
<text text-anchor="middle" x="1607.9" y="-400.614" font-family="Times,serif" font-size="15.17">machinery and equipment</text>
<text text-anchor="middle" x="1607.9" y="-382.406" font-family="Times,serif" font-size="15.17">n.e.c., 316.1 bn USD</text>
</g>
<!-- DEU16&#45;&gt;DEU19 -->
<g id="edge33" class="edge"><title>DEU16&#45;&gt;DEU19</title>
<path fill="none" stroke="grey" stroke-width="6.72423" d="M1367.59,-343.111C1411.16,-354.408 1465.21,-368.424 1510.91,-380.275"/>
<polygon fill="grey" stroke="grey" stroke-width="6.72423" points="1509.67,-386.033 1520.83,-382.847 1512.62,-374.642 1509.67,-386.033"/>
<text text-anchor="middle" x="1442.22" y="-375.367" font-family="Times,serif" font-size="14.00">14.1 bn USD</text>
</g>
<!-- DEU28&#45;&gt;DEU20 -->
<g id="edge6" class="edge"><title>DEU28&#45;&gt;DEU20</title>
<path fill="none" stroke="grey" stroke-width="7.94623" d="M1828.48,-333.915C1789.17,-318.742 1742.53,-300.743 1702.37,-285.244"/>
<polygon fill="grey" stroke="grey" stroke-width="7.94623" points="1704.68,-278.681 1692.85,-281.567 1699.67,-291.654 1704.68,-278.681"/>
<text text-anchor="middle" x="1773.57" y="-330.367" font-family="Times,serif" font-size="14.00">16.9 bn USD</text>
</g>
<!-- FRA15&#45;&gt;DEU15 -->
<g id="edge7" class="edge"><title>FRA15&#45;&gt;DEU15</title>
<path fill="none" stroke="grey" stroke-width="1.46743" stroke-dasharray="5,2" d="M934.127,-341.077C913.021,-333.036 886.886,-324.472 862.548,-320.367 835.133,-315.742 805.166,-314.044 777.328,-313.842"/>
<polygon fill="grey" stroke="grey" stroke-width="1.46743" points="777.18,-310.342 767.177,-313.832 777.174,-317.342 777.18,-310.342"/>
<text text-anchor="middle" x="825.8" y="-325.367" font-family="Times,serif" font-size="14.00">2.1 bn USD</text>
</g>
<!-- ITA15&#45;&gt;DEU15 -->
<g id="edge8" class="edge"><title>ITA15&#45;&gt;DEU15</title>
<path fill="none" stroke="grey" stroke-width="1.60777" stroke-dasharray="5,2" d="M901.226,-433.987C866.015,-434.484 824.209,-431.122 789.052,-417.167 751.89,-402.415 718.085,-370.688 696.728,-347.311"/>
<polygon fill="grey" stroke="grey" stroke-width="1.60777" points="699.244,-344.873 689.976,-339.74 694.02,-349.533 699.244,-344.873"/>
<text text-anchor="middle" x="825.8" y="-436.367" font-family="Times,serif" font-size="14.00">2.4 bn USD</text>
</g>
<!-- ITA15&#45;&gt;DEU16 -->
<g id="edge13" class="edge"><title>ITA15&#45;&gt;DEU16</title>
<path fill="none" stroke="grey" stroke-dasharray="5,2" d="M1034.77,-407.908C1079.39,-392.609 1142.67,-370.911 1194.4,-353.171"/>
<polygon fill="grey" stroke="grey" points="1195.6,-356.462 1203.92,-349.908 1193.33,-349.84 1195.6,-356.462"/>
<text text-anchor="middle" x="1129.42" y="-391.367" font-family="Times,serif" font-size="14.00">1.0 bn USD</text>
</g>
<!-- DEU24 -->
<g id="node10" class="node"><title>DEU24</title>
<polygon fill="#98f5ff" stroke="black" points="465.826,-375.43 299.855,-375.43 299.855,-316.903 465.826,-316.903 465.826,-375.43"/>
<text text-anchor="middle" x="382.841" y="-358.857" font-family="Times,serif" font-size="14.10">Germany, Electricity, gas,</text>
<text text-anchor="middle" x="382.841" y="-341.936" font-family="Times,serif" font-size="14.10">steam and air conditioning</text>
<text text-anchor="middle" x="382.841" y="-325.015" font-family="Times,serif" font-size="14.10">supply, 171.1 bn USD</text>
</g>
<!-- DEU24&#45;&gt;DEU15 -->
<g id="edge9" class="edge"><title>DEU24&#45;&gt;DEU15</title>
<path fill="none" stroke="grey" stroke-width="2.8443" d="M466.21,-338.43C497.632,-335.478 533.871,-332.074 567.062,-328.956"/>
<polygon fill="grey" stroke="grey" stroke-width="2.8443" points="567.627,-332.419 577.256,-327.999 566.972,-325.449 567.627,-332.419"/>
<text text-anchor="middle" x="522.268" y="-340.367" font-family="Times,serif" font-size="14.00">5.2 bn USD</text>
</g>
<!-- DEU31 -->
<g id="node11" class="node"><title>DEU31</title>
<polygon fill="#98f5ff" stroke="black" points="471.201,-291.7 294.48,-291.7 294.48,-234.634 471.201,-234.634 471.201,-291.7"/>
<text text-anchor="middle" x="382.841" y="-275.425" font-family="Times,serif" font-size="13.62">Germany, Land transport and</text>
<text text-anchor="middle" x="382.841" y="-259.081" font-family="Times,serif" font-size="13.62">transport via pipelines,</text>
<text text-anchor="middle" x="382.841" y="-242.736" font-family="Times,serif" font-size="13.62">130.0 bn USD</text>
</g>
<!-- DEU31&#45;&gt;DEU15 -->
<g id="edge10" class="edge"><title>DEU31&#45;&gt;DEU15</title>
<path fill="none" stroke="grey" stroke-width="2.0888" d="M471.254,-280.197C501.509,-286.091 535.719,-292.756 567.181,-298.885"/>
<polygon fill="grey" stroke="grey" stroke-width="2.0888" points="566.806,-302.378 577.291,-300.855 568.145,-295.507 566.806,-302.378"/>
<text text-anchor="middle" x="522.268" y="-301.367" font-family="Times,serif" font-size="14.00">3.5 bn USD</text>
</g>
<!-- DEU50 -->
<g id="node12" class="node"><title>DEU50</title>
<polygon fill="#98f5ff" stroke="black" points="1074.74,-590.994 880.484,-590.994 880.484,-529.339 1074.74,-529.339 1074.74,-590.994"/>
<text text-anchor="middle" x="977.611" y="-573.623" font-family="Times,serif" font-size="14.95">Germany, Administrative and</text>
<text text-anchor="middle" x="977.611" y="-555.681" font-family="Times,serif" font-size="14.95">support service activities,</text>
<text text-anchor="middle" x="977.611" y="-537.739" font-family="Times,serif" font-size="14.95">278.4 bn USD</text>
</g>
<!-- DEU50&#45;&gt;DEU16 -->
<g id="edge12" class="edge"><title>DEU50&#45;&gt;DEU16</title>
<path fill="none" stroke="grey" stroke-width="2.67084" d="M1028.6,-529.092C1069.81,-501.447 1127.57,-457.791 1166.17,-408.167 1177.89,-393.098 1170.7,-382.696 1184.17,-369.167 1187.64,-365.677 1191.43,-362.416 1195.42,-359.373"/>
<polygon fill="grey" stroke="grey" stroke-width="2.67084" points="1197.71,-362.039 1203.89,-353.428 1193.69,-356.311 1197.71,-362.039"/>
<text text-anchor="middle" x="1129.42" y="-482.367" font-family="Times,serif" font-size="14.00">4.8 bn USD</text>
</g>
<!-- CZE13 -->
<g id="node13" class="node"><title>CZE13</title>
<polygon fill="none" stroke="black" points="1042.8,-222.517 912.426,-222.517 912.426,-179.816 1042.8,-179.816 1042.8,-222.517"/>
<text text-anchor="middle" x="977.611" y="-209.754" font-family="Times,serif" font-size="9.54">Czech Republic, Manufacture</text>
<text text-anchor="middle" x="977.611" y="-198.304" font-family="Times,serif" font-size="9.54">of rubber and plastic</text>
<text text-anchor="middle" x="977.611" y="-186.855" font-family="Times,serif" font-size="9.54">products, 12.6 bn USD</text>
</g>
<!-- CZE13&#45;&gt;CZE20 -->
<g id="edge14" class="edge"><title>CZE13&#45;&gt;CZE20</title>
<path fill="none" stroke="grey" stroke-width="1.38846" d="M1042.8,-196.345C1087.51,-192.987 1147.7,-188.466 1196.87,-184.773"/>
<polygon fill="grey" stroke="grey" stroke-width="1.38846" points="1197.16,-188.261 1206.87,-184.022 1196.63,-181.281 1197.16,-188.261"/>
<text text-anchor="middle" x="1129.42" y="-197.367" font-family="Times,serif" font-size="14.00">1.9 bn USD</text>
</g>
<!-- CZE28 -->
<g id="node14" class="node"><title>CZE28</title>
<polygon fill="none" stroke="black" points="1036.8,-162.568 918.424,-162.568 918.424,-115.765 1036.8,-115.765 1036.8,-162.568"/>
<text text-anchor="middle" x="977.611" y="-151.167" font-family="Times,serif" font-size="8.00">Czech Republic, Wholesale and</text>
<text text-anchor="middle" x="977.611" y="-141.567" font-family="Times,serif" font-size="8.00">retail trade and repair of</text>
<text text-anchor="middle" x="977.611" y="-131.967" font-family="Times,serif" font-size="8.00">motor vehicles and</text>
<text text-anchor="middle" x="977.611" y="-122.367" font-family="Times,serif" font-size="8.00">motorcycles, 5.2 bn USD</text>
</g>
<!-- CZE28&#45;&gt;CZE20 -->
<g id="edge15" class="edge"><title>CZE28&#45;&gt;CZE20</title>
<path fill="none" stroke="grey" stroke-width="1.21276" d="M1036.93,-146.594C1082.07,-152.344 1145.34,-160.402 1196.66,-166.938"/>
<polygon fill="grey" stroke="grey" stroke-width="1.21276" points="1196.39,-170.432 1206.76,-168.224 1197.28,-163.488 1196.39,-170.432"/>
<text text-anchor="middle" x="1129.42" y="-166.367" font-family="Times,serif" font-size="14.00">1.5 bn USD</text>
</g>
<!-- DEU19&#45;&gt;HUN20 -->
<g id="edge18" class="edge"><title>DEU19&#45;&gt;HUN20</title>
<path fill="none" stroke="grey" stroke-width="1.617" stroke-dasharray="5,2" d="M1695.02,-405.998C1741.48,-404.661 1792.82,-399.713 1810.32,-385.167 1832.38,-366.823 1809.2,-344.565 1828.32,-323.167 1830.11,-321.153 1832.04,-319.25 1834.08,-317.45"/>
<polygon fill="grey" stroke="grey" stroke-width="1.617" points="1836.63,-319.899 1842.4,-311.012 1832.35,-314.362 1836.63,-319.899"/>
<text text-anchor="middle" x="1773.57" y="-408.367" font-family="Times,serif" font-size="14.00">2.4 bn USD</text>
</g>
<!-- POL16&#45;&gt;POL20 -->
<g id="edge21" class="edge"><title>POL16&#45;&gt;POL20</title>
<path fill="none" stroke="grey" stroke-width="1.52471" d="M1043.32,-71.7982C1207.89,-83.5778 1642.48,-114.685 1828.34,-127.989"/>
<polygon fill="grey" stroke="grey" stroke-width="1.52471" points="1828.12,-131.482 1838.34,-128.705 1828.62,-124.5 1828.12,-131.482"/>
<text text-anchor="middle" x="1442.22" y="-107.367" font-family="Times,serif" font-size="14.00">2.2 bn USD</text>
</g>
<!-- POL28 -->
<g id="node17" class="node"><title>POL28</title>
<polygon fill="none" stroke="black" points="1678.74,-60.5008 1537.05,-60.5008 1537.05,0.167548 1678.74,0.167548 1678.74,-60.5008"/>
<text text-anchor="middle" x="1607.9" y="-46.5208" font-family="Times,serif" font-size="10.90">Poland, Wholesale and retail</text>
<text text-anchor="middle" x="1607.9" y="-33.4375" font-family="Times,serif" font-size="10.90">trade and repair of motor</text>
<text text-anchor="middle" x="1607.9" y="-20.3541" font-family="Times,serif" font-size="10.90">vehicles and motorcycles,</text>
<text text-anchor="middle" x="1607.9" y="-7.27083" font-family="Times,serif" font-size="10.90">27.4 bn USD</text>
</g>
<!-- POL28&#45;&gt;POL20 -->
<g id="edge22" class="edge"><title>POL28&#45;&gt;POL20</title>
<path fill="none" stroke="grey" stroke-width="1.49691" d="M1678.67,-31.0937C1718.48,-33.6824 1768.61,-40.4952 1810.32,-57.3666 1836.52,-67.967 1862.14,-86.6702 1881.43,-102.965"/>
<polygon fill="grey" stroke="grey" stroke-width="1.49691" points="1879.18,-105.643 1889.03,-109.536 1883.76,-100.347 1879.18,-105.643"/>
<text text-anchor="middle" x="1773.57" y="-62.3666" font-family="Times,serif" font-size="14.00">2.2 bn USD</text>
</g>
<!-- DEU44 -->
<g id="node18" class="node"><title>DEU44</title>
<polygon fill="#98f5ff" stroke="black" points="1694.65,-501.568 1521.14,-501.568 1521.14,-454.765 1694.65,-454.765 1694.65,-501.568"/>
<text text-anchor="middle" x="1607.9" y="-482.967" font-family="Times,serif" font-size="16.00">Germany, Real estate</text>
<text text-anchor="middle" x="1607.9" y="-463.767" font-family="Times,serif" font-size="16.00">activities, 507.2 bn USD</text>
</g>
<!-- DEU44&#45;&gt;DEU28 -->
<g id="edge24" class="edge"><title>DEU44&#45;&gt;DEU28</title>
<path fill="none" stroke="grey" stroke-width="2.40894" d="M1694.89,-462.495C1731.25,-454.426 1773.6,-443.095 1810.32,-428.167 1824.66,-422.332 1839.41,-414.789 1853.14,-407.009"/>
<polygon fill="grey" stroke="grey" stroke-width="2.40894" points="1855.1,-409.919 1862,-401.877 1851.59,-403.862 1855.1,-409.919"/>
<text text-anchor="middle" x="1773.57" y="-455.367" font-family="Times,serif" font-size="14.00">4.2 bn USD</text>
</g>
<!-- DEU11 -->
<g id="node19" class="node"><title>DEU11</title>
<polygon fill="#98f5ff" stroke="black" points="754.378,-207.873 590.19,-207.873 590.19,-148.46 754.378,-148.46 754.378,-207.873"/>
<text text-anchor="middle" x="672.284" y="-190.968" font-family="Times,serif" font-size="14.22">Germany, Manufacture of</text>
<text text-anchor="middle" x="672.284" y="-173.899" font-family="Times,serif" font-size="14.22">chemicals and chemical</text>
<text text-anchor="middle" x="672.284" y="-156.831" font-family="Times,serif" font-size="14.22">products , 183.6 bn USD</text>
</g>
<!-- DEU11&#45;&gt;CZE13 -->
<g id="edge25" class="edge"><title>DEU11&#45;&gt;CZE13</title>
<path fill="none" stroke="grey" stroke-width="1.00435" stroke-dasharray="5,2" d="M754.501,-175.439C788.025,-175.155 827.229,-175.909 862.548,-179.367 875.499,-180.635 889.171,-182.649 902.376,-184.953"/>
<polygon fill="grey" stroke="grey" stroke-width="1.00435" points="901.9,-188.424 912.364,-186.764 903.148,-181.536 901.9,-188.424"/>
<text text-anchor="middle" x="825.8" y="-184.367" font-family="Times,serif" font-size="14.00">1.1 bn USD</text>
</g>
<!-- FRA24 -->
<g id="node20" class="node"><title>FRA24</title>
<polygon fill="none" stroke="black" points="753.4,-476.791 591.168,-476.791 591.168,-419.543 753.4,-419.543 753.4,-476.791"/>
<text text-anchor="middle" x="672.284" y="-460.572" font-family="Times,serif" font-size="13.78">France, Electricity, gas,</text>
<text text-anchor="middle" x="672.284" y="-444.031" font-family="Times,serif" font-size="13.78">steam and air conditioning</text>
<text text-anchor="middle" x="672.284" y="-427.49" font-family="Times,serif" font-size="13.78">supply, 142.7 bn USD</text>
</g>
<!-- FRA24&#45;&gt;FRA15 -->
<g id="edge27" class="edge"><title>FRA24&#45;&gt;FRA15</title>
<path fill="none" stroke="grey" stroke-width="1.88463" d="M753.62,-473.604C790.086,-480.074 831.826,-479.8 862.548,-457.167 884.278,-441.158 862.376,-419.124 880.548,-399.167 886.711,-392.398 894.197,-386.741 902.243,-382.022"/>
<polygon fill="grey" stroke="grey" stroke-width="1.88463" points="903.984,-385.06 911.155,-377.261 900.686,-378.886 903.984,-385.06"/>
<text text-anchor="middle" x="825.8" y="-481.367" font-family="Times,serif" font-size="14.00">3.1 bn USD</text>
</g>
<!-- ITA26 -->
<g id="node21" class="node"><title>ITA26</title>
<polygon fill="none" stroke="black" points="742.286,-603.499 602.282,-603.499 602.282,-494.834 742.286,-494.834 742.286,-603.499"/>
<text text-anchor="middle" x="672.284" y="-588.779" font-family="Times,serif" font-size="12.00">Italy, Sewerage; waste</text>
<text text-anchor="middle" x="672.284" y="-574.375" font-family="Times,serif" font-size="12.00">collection, treatment and</text>
<text text-anchor="middle" x="672.284" y="-559.97" font-family="Times,serif" font-size="12.00">disposal activities;</text>
<text text-anchor="middle" x="672.284" y="-545.565" font-family="Times,serif" font-size="12.00">materials recovery;</text>
<text text-anchor="middle" x="672.284" y="-531.161" font-family="Times,serif" font-size="12.00">remediation activities and</text>
<text text-anchor="middle" x="672.284" y="-516.756" font-family="Times,serif" font-size="12.00">other waste management</text>
<text text-anchor="middle" x="672.284" y="-502.352" font-family="Times,serif" font-size="12.00">services , 51.5 bn USD</text>
</g>
<!-- ITA26&#45;&gt;ITA15 -->
<g id="edge29" class="edge"><title>ITA26&#45;&gt;ITA15</title>
<path fill="none" stroke="grey" stroke-width="3.90761" d="M742.373,-535.683C778.968,-527.276 824.159,-514.851 862.548,-498.167 890.876,-485.854 920.417,-467.282 942.337,-452.221"/>
<polygon fill="grey" stroke="grey" stroke-width="3.90761" points="944.44,-455.021 950.642,-446.431 940.437,-449.278 944.44,-455.021"/>
<text text-anchor="middle" x="825.8" y="-526.367" font-family="Times,serif" font-size="14.00">7.7 bn USD</text>
</g>
<!-- POL15 -->
<g id="node22" class="node"><title>POL15</title>
<polygon fill="none" stroke="black" points="739.146,-85.1666 605.422,-85.1666 605.422,-49.1666 739.146,-49.1666 739.146,-85.1666"/>
<text text-anchor="middle" x="672.284" y="-70.1571" font-family="Times,serif" font-size="9.97">Poland, Manufacture of basic</text>
<text text-anchor="middle" x="672.284" y="-58.1951" font-family="Times,serif" font-size="9.97">metals, 16.1 bn USD</text>
</g>
<!-- POL15&#45;&gt;POL16 -->
<g id="edge31" class="edge"><title>POL15&#45;&gt;POL16</title>
<path fill="none" stroke="grey" stroke-width="1.22587" d="M739.101,-67.1666C787.108,-67.1666 852.224,-67.1666 902.135,-67.1666"/>
<polygon fill="grey" stroke="grey" stroke-width="1.22587" points="902.224,-70.6667 912.224,-67.1666 902.224,-63.6667 902.224,-70.6667"/>
<text text-anchor="middle" x="825.8" y="-71.3666" font-family="Times,serif" font-size="14.00">1.6 bn USD</text>
</g>
<!-- ITA19 -->
<g id="node23" class="node"><title>ITA19</title>
<polygon fill="none" stroke="black" points="1365.36,-435.92 1206.29,-435.92 1206.29,-378.413 1365.36,-378.413 1365.36,-435.92"/>
<text text-anchor="middle" x="1285.82" y="-419.605" font-family="Times,serif" font-size="13.82">Italy, Manufacture of</text>
<text text-anchor="middle" x="1285.82" y="-403.021" font-family="Times,serif" font-size="13.82">machinery and equipment</text>
<text text-anchor="middle" x="1285.82" y="-386.436" font-family="Times,serif" font-size="13.82">n.e.c., 145.7 bn USD</text>
</g>
<!-- ITA19&#45;&gt;DEU19 -->
<g id="edge32" class="edge"><title>ITA19&#45;&gt;DEU19</title>
<path fill="none" stroke="grey" stroke-width="1.8105" stroke-dasharray="5,2" d="M1365.53,-406.675C1409.42,-406.401 1464.42,-406.057 1510.83,-405.767"/>
<polygon fill="grey" stroke="grey" stroke-width="1.8105" points="1510.92,-409.266 1520.9,-405.704 1510.88,-402.267 1510.92,-409.266"/>
<text text-anchor="middle" x="1442.22" y="-411.367" font-family="Times,serif" font-size="14.00">2.9 bn USD</text>
</g>
<!-- DEU51 -->
<g id="node24" class="node"><title>DEU51</title>
<polygon fill="#98f5ff" stroke="black" points="185.247,-487.771 -0.0824609,-487.771 -0.0824609,-406.562 185.247,-406.562 185.247,-487.771"/>
<text text-anchor="middle" x="92.5824" y="-470.012" font-family="Times,serif" font-size="15.23">Germany, Public</text>
<text text-anchor="middle" x="92.5824" y="-451.736" font-family="Times,serif" font-size="15.23">administration and defence;</text>
<text text-anchor="middle" x="92.5824" y="-433.46" font-family="Times,serif" font-size="15.23">compulsory social security,</text>
<text text-anchor="middle" x="92.5824" y="-415.184" font-family="Times,serif" font-size="15.23">326.4 bn USD</text>
</g>
<!-- DEU51&#45;&gt;DEU24 -->
<g id="edge34" class="edge"><title>DEU51&#45;&gt;DEU24</title>
<path fill="none" stroke="grey" stroke-width="5.26761" d="M185.185,-415.071C218.645,-403.347 256.48,-390.09 289.964,-378.358"/>
<polygon fill="grey" stroke="grey" stroke-width="5.26761" points="291.831,-382.588 299.744,-374.932 288.783,-373.888 291.831,-382.588"/>
<text text-anchor="middle" x="239.913" y="-413.367" font-family="Times,serif" font-size="14.00">10.8 bn USD</text>
</g>
<!-- NLD45 -->
<g id="node25" class="node"><title>NLD45</title>
<polygon fill="none" stroke="black" points="165.195,-388.598 19.9696,-388.598 19.9696,-303.735 165.195,-303.735 165.195,-388.598"/>
<text text-anchor="middle" x="92.5824" y="-372.917" font-family="Times,serif" font-size="12.74">Netherlands, Legal and</text>
<text text-anchor="middle" x="92.5824" y="-357.631" font-family="Times,serif" font-size="12.74">accounting activities;</text>
<text text-anchor="middle" x="92.5824" y="-342.345" font-family="Times,serif" font-size="12.74">activities of head offices;</text>
<text text-anchor="middle" x="92.5824" y="-327.059" font-family="Times,serif" font-size="12.74">management consultancy</text>
<text text-anchor="middle" x="92.5824" y="-311.773" font-family="Times,serif" font-size="12.74">activities, 78.5 bn USD</text>
</g>
<!-- NLD45&#45;&gt;DEU24 -->
<g id="edge35" class="edge"><title>NLD45&#45;&gt;DEU24</title>
<path fill="none" stroke="grey" stroke-width="1.85477" stroke-dasharray="5,2" d="M165.208,-346.167C202.791,-346.167 249.268,-346.167 289.524,-346.167"/>
<polygon fill="grey" stroke="grey" stroke-width="1.85477" points="289.615,-349.667 299.615,-346.167 289.615,-342.667 289.615,-349.667"/>
<text text-anchor="middle" x="239.913" y="-350.367" font-family="Times,serif" font-size="14.00">3.0 bn USD</text>
</g>
<!-- DEU34 -->
<g id="node26" class="node"><title>DEU34</title>
<polygon fill="#98f5ff" stroke="black" points="183.426,-286.596 1.73903,-286.596 1.73903,-227.738 183.426,-227.738 183.426,-286.596"/>
<text text-anchor="middle" x="92.5824" y="-269.773" font-family="Times,serif" font-size="14.01">Germany, Warehousing and</text>
<text text-anchor="middle" x="92.5824" y="-252.964" font-family="Times,serif" font-size="14.01">support activities for</text>
<text text-anchor="middle" x="92.5824" y="-236.155" font-family="Times,serif" font-size="14.01">transportation, 162.2 bn USD</text>
</g>
<!-- DEU34&#45;&gt;DEU31 -->
<g id="edge36" class="edge"><title>DEU34&#45;&gt;DEU31</title>
<path fill="none" stroke="grey" stroke-width="8.30295" d="M183.603,-259.04C215.64,-259.707 251.85,-260.461 284.474,-261.14"/>
<polygon fill="grey" stroke="grey" stroke-width="8.30295" points="284.326,-268.403 294.475,-261.348 284.628,-253.876 284.326,-268.403"/>
<text text-anchor="middle" x="239.913" y="-265.367" font-family="Times,serif" font-size="14.00">17.7 bn USD</text>
</g>
<!-- DEU27 -->
<g id="node27" class="node"><title>DEU27</title>
<polygon fill="#98f5ff" stroke="black" points="1387.63,-500.706 1184.02,-500.706 1184.02,-455.627 1387.63,-455.627 1387.63,-500.706"/>
<text text-anchor="middle" x="1285.82" y="-482.797" font-family="Times,serif" font-size="15.43">Germany, Construction, 366.6</text>
<text text-anchor="middle" x="1285.82" y="-464.277" font-family="Times,serif" font-size="15.43">bn USD</text>
</g>
<!-- DEU27&#45;&gt;DEU44 -->
<g id="edge37" class="edge"><title>DEU27&#45;&gt;DEU44</title>
<path fill="none" stroke="grey" stroke-width="17" d="M1387.66,-478.167C1427.02,-478.167 1471.94,-478.167 1510.83,-478.167"/>
<polygon fill="grey" stroke="grey" stroke-width="17" points="1511.1,-493.042 1521.1,-478.167 1511.1,-463.292 1511.1,-493.042"/>
<text text-anchor="middle" x="1442.22" y="-482.367" font-family="Times,serif" font-size="14.00">37.5 bn USD</text>
</g>
<!-- DEU45 -->
<g id="node28" class="node"><title>DEU45</title>
<polygon fill="#98f5ff" stroke="black" points="770.82,-714.572 573.748,-714.572 573.748,-621.761 770.82,-621.761 770.82,-714.572"/>
<text text-anchor="middle" x="672.284" y="-697.884" font-family="Times,serif" font-size="14.15">Germany, Legal and accounting</text>
<text text-anchor="middle" x="672.284" y="-680.902" font-family="Times,serif" font-size="14.15">activities; activities of</text>
<text text-anchor="middle" x="672.284" y="-663.921" font-family="Times,serif" font-size="14.15">head offices; management</text>
<text text-anchor="middle" x="672.284" y="-646.94" font-family="Times,serif" font-size="14.15">consultancy activities, 176.1</text>
<text text-anchor="middle" x="672.284" y="-629.959" font-family="Times,serif" font-size="14.15">bn USD</text>
</g>
<!-- DEU45&#45;&gt;DEU50 -->
<g id="edge38" class="edge"><title>DEU45&#45;&gt;DEU50</title>
<path fill="none" stroke="grey" stroke-width="5.40422" d="M770.928,-633.4C805.913,-620.944 845.31,-606.916 880.191,-594.497"/>
<polygon fill="grey" stroke="grey" stroke-width="5.40422" points="882.068,-598.848 889.902,-591.039 878.895,-589.939 882.068,-598.848"/>
<text text-anchor="middle" x="825.8" y="-627.367" font-family="Times,serif" font-size="14.00">11.1 bn USD</text>
</g>
</g>
</svg>
